<svg xmlns="http://www.w3.org/2000/svg" width="24" height="24" viewBox="0 0 24 24">
    <path fill="#AAB2BD" fill-rule="nonzero" d="M21.437 19.397c.011-.013.015-.029.024-.043A11.925 11.925 0 0 0 24 12c0-6.617-5.383-12-12-12S0 5.382 0 12c0 2.774.955 5.324 2.541 7.358.01.013.013.027.022.038l.045.051a12.049 12.049 0 0 0 1.827 1.857c.106.086.219.161.327.245.22.166.44.33.67.482.16.106.327.202.494.3.19.113.383.223.58.325a11.39 11.39 0 0 0 1.154.518c.188.074.374.146.566.209.221.074.446.136.673.196.18.048.358.1.54.14.266.057.537.098.81.138.15.022.297.052.45.07.427.046.86.073 1.3.073.44 0 .873-.027 1.3-.073.154-.018.303-.048.456-.07.27-.04.539-.081.804-.138.185-.04.366-.092.548-.142.223-.06.444-.12.662-.193.195-.064.387-.137.58-.212a11.321 11.321 0 0 0 1.709-.832c.174-.102.347-.202.516-.313.217-.144.425-.299.633-.456.12-.09.245-.176.362-.272.332-.27.648-.557.95-.86l.03-.035c.296-.3.573-.62.836-.95.018-.019.037-.037.052-.057zM12.001 2.138c5.437 0 9.862 4.423 9.862 9.862a9.805 9.805 0 0 1-1.262 4.812 10.901 10.901 0 0 0-5.521-3.773 4.52 4.52 0 0 0 1.458-3.324 4.542 4.542 0 0 0-4.536-4.537 4.542 4.542 0 0 0-4.538 4.537 4.52 4.52 0 0 0 1.459 3.324 10.892 10.892 0 0 0-5.52 3.773A9.787 9.787 0 0 1 2.14 12C2.139 6.561 6.562 2.138 12 2.138zm7.178 16.603a11.812 11.812 0 0 1-.754.725c-.142.123-.29.239-.437.352-.122.094-.243.19-.368.276-.13.09-.265.174-.398.257-.149.093-.295.189-.45.274-.12.067-.247.126-.371.188-.17.086-.338.173-.513.248-.123.053-.252.096-.378.145-.18.069-.358.14-.542.198-.143.046-.29.079-.436.117-.173.047-.343.098-.52.134-.189.04-.384.063-.577.091-.138.02-.273.049-.412.063a9.963 9.963 0 0 1-2.043 0c-.128-.014-.254-.04-.382-.058-.204-.03-.408-.055-.608-.096-.163-.034-.32-.083-.48-.124-.16-.042-.322-.078-.48-.128-.167-.052-.33-.12-.495-.182-.143-.053-.288-.103-.427-.163-.16-.068-.313-.148-.466-.224-.142-.07-.284-.138-.422-.214-.139-.078-.271-.164-.406-.248-.15-.093-.299-.186-.444-.287-.112-.079-.22-.163-.328-.246a9.589 9.589 0 0 1-.478-.386c-.085-.072-.165-.148-.247-.223a9.372 9.372 0 0 1-.506-.502c-.03-.031-.058-.064-.088-.097a8.754 8.754 0 0 1 7.281-3.903 8.752 8.752 0 0 1 7.279 3.903c-.037.036-.07.074-.104.11zM12 12.115a2.402 2.402 0 0 1-2.4-2.4 2.402 2.402 0 0 1 2.4-2.399 2.401 2.401 0 0 1 2.398 2.4c0 1.322-1.076 2.399-2.398 2.399z"/>
</svg>
