<svg xmlns="http://www.w3.org/2000/svg" width="24" height="24" viewBox="0 0 24 24">
    <path fill="#AAB2BD" fill-rule="nonzero" d="M20.727 5.449h-4.724l1.739-1.015c.333-.194.538-.548.538-.93V1.08C18.28.483 17.791 0 17.19 0h-3.84c-.503 0-.94.34-1.06.823L12 1.99 11.711.824A1.09 1.09 0 0 0 10.651 0H6.814C6.21 0 5.722.483 5.722 1.081v2.422c0 .383.204.737.538.93L7.999 5.45H3.273C1.468 5.449 0 6.904 0 8.692v2.343c0 1.441.958 2.65 2.271 3.071v6.65C2.271 22.547 3.74 24 5.544 24h12.912c1.805 0 3.273-1.455 3.273-3.243v-6.651c1.314-.422 2.271-1.63 2.271-3.072V8.692c0-1.788-1.468-3.243-3.273-3.243zm-6.522-3.288h1.893v.723l-2.422 1.413.529-2.136zm-6.301 0h1.892l.528 2.136-2.42-1.413v-.723zm-5.722 6.53c0-.595.49-1.08 1.091-1.08h7.379v4.503H3.273a1.087 1.087 0 0 1-1.091-1.08V8.691zm2.271 12.064v-6.478h6.199v7.56H5.544a1.088 1.088 0 0 1-1.09-1.082zm15.094 0c0 .596-.49 1.081-1.091 1.081h-5.107v-7.559h6.198v6.478zm2.271-9.721c0 .597-.49 1.081-1.091 1.081h-7.378V7.611h7.378c.601 0 1.091.486 1.091 1.081v2.342z"/>
</svg>
