<svg xmlns="http://www.w3.org/2000/svg" width="24" height="24" viewBox="0 0 24 24">
    <path fill="#AAB2BD" fill-rule="nonzero" d="M23.539 8.12L12.537.179a.901.901 0 0 0-1.075 0L.46 8.12c-.374.27-.544.783-.42 1.264.125.48.514.811.958.811h2.53V20.74c0 1.797 1.295 3.26 2.886 3.26h3.791c.55 0 .996-.504.996-1.126V16.46c0-.556.402-1.007.894-1.007s.892.452.892 1.007v6.414c0 .622.446 1.126.997 1.126h3.79c1.592 0 2.887-1.463 2.887-3.26V10.195h2.342c.443 0 .833-.33.957-.81.124-.48-.048-.995-.421-1.264zm-4.873.95v11.67c0 .556-.4 1.008-.893 1.008H14.98V16.46c0-1.797-1.296-3.259-2.887-3.259-1.592 0-2.886 1.462-2.886 3.259v5.288H6.413c-.491 0-.89-.452-.89-1.008V9.07c0-.623-.448-1.127-.998-1.127h-.118L12 2.461l7.596 5.484c-.52.041-.93.528-.93 1.124z"/>
</svg>
