<svg xmlns="http://www.w3.org/2000/svg" width="24" height="24" viewBox="0 0 24 24">
    <path fill="#AAB2BD" fill-rule="nonzero" d="M12 0C5.383 0 0 5.384 0 12c0 6.617 5.383 12 12 12s12-5.383 12-12c0-6.616-5.383-12-12-12zm-1.929 15.403a4.423 4.423 0 0 1 3.886-.01l-1.952 2.52-1.934-2.51zm4.962-1.4a6.046 6.046 0 0 0-3.008-.797c-1.076 0-2.107.28-3.028.809l-1.962-2.548 1.325-.544 3.36 1.143a.872.872 0 0 0 .586-.01l3.009-1.135 1.65.59-1.932 2.492zm-.593-4.606l-1.572.593V1.78c.537.045 1.06.136 1.572.261v7.356zm-3.308.635L9.2 9.375V2.134a10.185 10.185 0 0 1 1.933-.354v8.252zm-3.668-.618l-.942.387V3.336c.304-.193.618-.368.942-.53v6.608zm10.052.45l-1.34-.479V2.633c.466.209.913.452 1.34.725v6.506zM12 22.264c-5.66 0-10.264-4.603-10.264-10.263 0-2.85 1.168-5.43 3.05-7.291v6.386c0 .191.064.377.18.53l6.347 8.241a.871.871 0 0 0 .686.339h.007a.871.871 0 0 0 .686-.337l3.226-4.165.012-.024 3.14-4.053a.87.87 0 0 0 .18-.531V4.743a10.237 10.237 0 0 1 3.013 7.258C22.264 17.66 17.66 22.265 12 22.265z"/>
</svg>
